<mxfile host="app.diagrams.net" modified="2024-02-01T12:25:30.987Z" agent="Mozilla/5.0 (Windows NT 10.0; Win64; x64) AppleWebKit/537.36 (KHTML, like Gecko) Chrome/121.0.0.0 Safari/537.36" etag="MGxWGZiG-sVKnsuKogzi" version="23.1.0" type="github">
  <diagram name="Page-1" id="-IhJRgKvzTdqG44v_ITt">
    <mxGraphModel dx="1434" dy="780" grid="1" gridSize="10" guides="1" tooltips="1" connect="1" arrows="1" fold="1" page="1" pageScale="1" pageWidth="827" pageHeight="1169" math="0" shadow="0">
      <root>
        <mxCell id="0" />
        <mxCell id="1" parent="0" />
        <mxCell id="vuH5PDmZ19wNyiz14VQx-15" style="edgeStyle=orthogonalEdgeStyle;rounded=0;orthogonalLoop=1;jettySize=auto;html=1;exitX=0.015;exitY=0.985;exitDx=0;exitDy=0;exitPerimeter=0;startArrow=classic;startFill=1;" edge="1" parent="1" source="vuH5PDmZ19wNyiz14VQx-10" target="vuH5PDmZ19wNyiz14VQx-11">
          <mxGeometry relative="1" as="geometry" />
        </mxCell>
        <mxCell id="vuH5PDmZ19wNyiz14VQx-16" style="edgeStyle=orthogonalEdgeStyle;rounded=0;orthogonalLoop=1;jettySize=auto;html=1;exitX=0.985;exitY=0.985;exitDx=0;exitDy=0;exitPerimeter=0;" edge="1" parent="1" source="vuH5PDmZ19wNyiz14VQx-10" target="vuH5PDmZ19wNyiz14VQx-12">
          <mxGeometry relative="1" as="geometry" />
        </mxCell>
        <mxCell id="vuH5PDmZ19wNyiz14VQx-23" style="edgeStyle=orthogonalEdgeStyle;rounded=0;orthogonalLoop=1;jettySize=auto;html=1;exitX=0;exitY=0.75;exitDx=0;exitDy=0;exitPerimeter=0;" edge="1" parent="1" source="vuH5PDmZ19wNyiz14VQx-10" target="vuH5PDmZ19wNyiz14VQx-22">
          <mxGeometry relative="1" as="geometry" />
        </mxCell>
        <mxCell id="vuH5PDmZ19wNyiz14VQx-10" value="" style="sketch=0;points=[[0.015,0.015,0],[0.985,0.015,0],[0.985,0.985,0],[0.015,0.985,0],[0.25,0,0],[0.5,0,0],[0.75,0,0],[1,0.25,0],[1,0.5,0],[1,0.75,0],[0.75,1,0],[0.5,1,0],[0.25,1,0],[0,0.75,0],[0,0.5,0],[0,0.25,0]];verticalLabelPosition=bottom;html=1;verticalAlign=top;aspect=fixed;align=center;pointerEvents=1;shape=mxgraph.cisco19.rect;prIcon=l2_switch;fillColor=#FAFAFA;strokeColor=#005073;" vertex="1" parent="1">
          <mxGeometry x="398" y="290" width="50" height="50" as="geometry" />
        </mxCell>
        <mxCell id="vuH5PDmZ19wNyiz14VQx-11" value="" style="shape=mxgraph.cisco.computers_and_peripherals.pc;html=1;pointerEvents=1;dashed=0;fillColor=#036897;strokeColor=#ffffff;strokeWidth=2;verticalLabelPosition=bottom;verticalAlign=top;align=center;outlineConnect=0;" vertex="1" parent="1">
          <mxGeometry x="320" y="460" width="78" height="70" as="geometry" />
        </mxCell>
        <mxCell id="vuH5PDmZ19wNyiz14VQx-12" value="" style="shape=mxgraph.cisco.computers_and_peripherals.pc;html=1;pointerEvents=1;dashed=0;fillColor=#036897;strokeColor=#ffffff;strokeWidth=2;verticalLabelPosition=bottom;verticalAlign=top;align=center;outlineConnect=0;" vertex="1" parent="1">
          <mxGeometry x="448" y="460" width="78" height="70" as="geometry" />
        </mxCell>
        <mxCell id="vuH5PDmZ19wNyiz14VQx-22" value="" style="shape=mxgraph.cisco.computers_and_peripherals.pc;html=1;pointerEvents=1;dashed=0;fillColor=#036897;strokeColor=#ffffff;strokeWidth=2;verticalLabelPosition=bottom;verticalAlign=top;align=center;outlineConnect=0;" vertex="1" parent="1">
          <mxGeometry x="190" y="460" width="78" height="70" as="geometry" />
        </mxCell>
        <mxCell id="vuH5PDmZ19wNyiz14VQx-31" value="Actor" style="shape=umlActor;verticalLabelPosition=bottom;verticalAlign=top;html=1;outlineConnect=0;" vertex="1" parent="1">
          <mxGeometry x="163" y="581" width="30" height="60" as="geometry" />
        </mxCell>
        <mxCell id="vuH5PDmZ19wNyiz14VQx-32" value="" style="endArrow=none;html=1;rounded=0;" edge="1" parent="1">
          <mxGeometry width="50" height="50" relative="1" as="geometry">
            <mxPoint x="70" y="640" as="sourcePoint" />
            <mxPoint x="580" y="640" as="targetPoint" />
          </mxGeometry>
        </mxCell>
        <mxCell id="vuH5PDmZ19wNyiz14VQx-33" value="" style="html=1;verticalLabelPosition=bottom;align=center;labelBackgroundColor=#ffffff;verticalAlign=top;strokeWidth=2;strokeColor=#0080F0;shadow=0;dashed=0;shape=mxgraph.ios7.icons.home;" vertex="1" parent="1">
          <mxGeometry x="280" y="560" width="104" height="81" as="geometry" />
        </mxCell>
        <mxCell id="vuH5PDmZ19wNyiz14VQx-34" value="" style="shape=mxgraph.signs.transportation.car_1;html=1;pointerEvents=1;fillColor=#000000;strokeColor=none;verticalLabelPosition=bottom;verticalAlign=top;align=center;" vertex="1" parent="1">
          <mxGeometry x="220" y="593" width="59" height="48" as="geometry" />
        </mxCell>
        <mxCell id="vuH5PDmZ19wNyiz14VQx-35" value="Actor" style="shape=umlActor;verticalLabelPosition=bottom;verticalAlign=top;html=1;outlineConnect=0;" vertex="1" parent="1">
          <mxGeometry x="133" y="581" width="30" height="60" as="geometry" />
        </mxCell>
      </root>
    </mxGraphModel>
  </diagram>
</mxfile>
